<?xml version="1.0" standalone="no"?>
<!DOCTYPE svg PUBLIC "-//W3C//DTD SVG 1.1//EN" "http://www.w3.org/Graphics/SVG/1.1/DTD/svg11.dtd" >
<svg xmlns="http://www.w3.org/2000/svg">
<metadata></metadata>
<defs>
<font id="ZineSlabDisMediumRomanTf" horiz-adv-x="1146" >
<font-face units-per-em="2048" ascent="1638" descent="-410" />
<missing-glyph horiz-adv-x="532" />
<glyph horiz-adv-x="0" />
<glyph horiz-adv-x="2048" />
<glyph unicode=" "  horiz-adv-x="532" />
<glyph unicode="&#x09;" horiz-adv-x="532" />
<glyph unicode="&#xa0;" horiz-adv-x="532" />
<glyph unicode="!" horiz-adv-x="542" d="M145 0v252h252v-252h-252zM145 915v451h252v-451l-20 -497h-211z" />
<glyph unicode="&#x22;" horiz-adv-x="833" d="M123 915v390h231v-390h-231zM477 915v390h234v-390h-234z" />
<glyph unicode="#" d="M82 356v201h160v252h-160v201h160v356h233v-356h197v356h233v-356h160v-201h-160v-252h160v-201h-160v-356h-233v356h-197v-356h-233v356h-160zM475 557h197v252h-197v-252z" />
<glyph unicode="$" d="M166 59v318h172v-162q123 -41 211 -41q193 0 192 164q0 78 -39.5 123t-115.5 78l-137 59q-55 25 -97.5 49.5t-88.5 66.5t-70.5 103.5t-24.5 136.5q0 156 86 247t231 116v225h193v-223q141 -12 291 -66v-315h-172v162q-119 35 -201 35q-84 0 -135 -39t-51 -117 q0 -70 37.5 -106.5t115.5 -71.5l137 -62q127 -57 204 -146t77 -241q0 -322 -311 -366v-224h-195v222q-141 8 -309 75z" />
<glyph unicode="%" horiz-adv-x="1673" d="M68 954.5q0 184.5 89 277.5t232 93t232.5 -93t89.5 -277.5t-89.5 -276.5t-232.5 -92t-232 92t-89 276.5zM299 954.5q0 -114.5 20.5 -162t69.5 -47.5t69.5 47.5t20.5 162t-20.5 163.5t-69.5 49t-69.5 -49t-20.5 -163.5zM442 25l576 1304l211 -49l-576 -1305zM961 350.5 q0 184.5 90 276.5t233 92t232.5 -92t89.5 -276.5t-89.5 -277.5t-232.5 -93t-233 93t-90 277.5zM1194 350.5q0 -114.5 20.5 -163t69.5 -48.5t68.5 47t19.5 164t-19.5 164t-68.5 47t-69.5 -48t-20.5 -162.5z" />
<glyph unicode="&#x26;" horiz-adv-x="1220" d="M88 330q0 244 234 362q-141 127 -142 297q0 162 96.5 249t268.5 87q156 0 251 -86t95 -238q0 -133 -69.5 -208.5t-184.5 -124.5l215 -246q41 115 47 283h213q-6 -281 -121 -443l148 -170l-168 -131l-142 156q-141 -137 -346 -137q-174 0 -284.5 88t-110.5 262zM330 356 q0 -84 45 -138t123 -54q121 0 213 92l-273 309q-109 -78 -108 -209zM401 993q0 -102 129 -202q140 71 140 208q0 70 -35 109t-94 39q-66 0 -103 -39t-37 -115z" />
<glyph unicode="'" horiz-adv-x="477" d="M123 915v390h231v-390h-231z" />
<glyph unicode="(" horiz-adv-x="573" d="M88 678q0 477 315 850l150 -64q-213 -410 -213 -786.5t213 -786.5l-150 -61q-315 373 -315 848z" />
<glyph unicode=")" horiz-adv-x="573" d="M20 -109q213 410 213 787t-213 786l150 64q315 -373 315 -850q0 -475 -315 -848z" />
<glyph unicode="*" horiz-adv-x="790" d="M82 954l164 93l-164 94l76 131l161 -94v188h152v-188l162 94l76 -131l-164 -94l164 -93l-76 -129l-162 93v-185h-152v185l-161 -93z" />
<glyph unicode="+" horiz-adv-x="937" d="M94 537v192h275v297h200v-297h275v-192h-275v-297h-200v297h-275z" />
<glyph unicode="," horiz-adv-x="514" d="M133 0v248h248v-228l-66 -290l-161 26l45 244h-66z" />
<glyph unicode="-" horiz-adv-x="544" d="M61 504v196h422v-196h-422z" />
<glyph unicode="." horiz-adv-x="514" d="M133 0v248h248v-248h-248z" />
<glyph unicode="/" horiz-adv-x="667" d="M47 14l363 1377l211 -39l-365 -1377z" />
<glyph unicode="0" d="M121 653q0 672 452 672q451 0 451 -672q0 -674 -451 -673q-453 0 -452 673zM362 653q0 -256 51.5 -371.5t160 -115.5t158.5 114.5t50 372.5t-50 373t-158.5 115t-160 -117t-51.5 -371z" />
<glyph unicode="1" d="M205 1122l393 183h131v-1133h246v-172h-733v172h254v877l-277 -70z" />
<glyph unicode="2" d="M182 975v268q203 82 367 82q188 0 297.5 -89t109.5 -280q0 -76 -18 -140t-55 -115.5t-69 -84t-81 -75.5l-115 -99q-72 -61 -113.5 -118.5t-51.5 -130.5h360v153h172v-346h-790q0 219 63.5 346t179.5 229l121 105q53 47 80 74.5t51.5 82t24.5 117.5q0 88 -50.5 134.5 t-136.5 46.5q-82 0 -174 -29v-131h-172z" />
<glyph unicode="3" d="M213 43v303h172v-164q82 -20 156 -20q190 0 190 215q0 219 -235 219h-146v180h146q96 0 155.5 48t59.5 145q0 84 -43 128t-119 44q-63 0 -164 -29v-137h-172v278q195 72 354 72q172 0 279.5 -75.5t107.5 -245.5q0 -225 -217 -308q238 -71 238 -331q0 -104 -36 -182.5 t-97.5 -121.5t-133 -62t-155.5 -19q-180 0 -340 63z" />
<glyph unicode="4" d="M98 248v190l553 867h254v-867h144v-190h-144v-248h-233v248h-574zM297 438h375v586z" />
<glyph unicode="5" d="M201 43v303h172v-164q61 -20 139 -20q190 0 190 239.5t-159 239.5q-96 0 -187 -94l-139 28l21 730h720v-330h-172v137h-319l-14 -328q61 39 145 39q66 0 122 -19.5t110.5 -63.5t85 -131t30.5 -208q0 -117 -33.5 -200.5t-94 -130.5t-132.5 -68.5t-160 -21.5 q-152 0 -325 63z" />
<glyph unicode="6" d="M141 571q0 371 133.5 562.5t362.5 191.5q156 0 287 -57v-293h-172v155q-55 12 -117 13q-96 0 -166 -105.5t-78 -287.5q109 92 256 92q152 0 256.5 -104.5t104.5 -331.5q0 -215 -118 -320.5t-312 -105.5q-436 0 -437 591zM383 535q0 -373 197 -373q186 0 186 246 q0 252 -176 251q-98 0 -207 -84v-40z" />
<glyph unicode="7" d="M141 975v330h863v-193l-390 -1112h-243l403 1112h-461v-137h-172z" />
<glyph unicode="8" d="M131 348q0 236 234 330q-90 47 -144.5 118.5t-54.5 198.5q0 158 111.5 244t304.5 86q186 0 294.5 -85t108.5 -239q0 -213 -211 -303q244 -98 244 -346q0 -373 -440 -372q-215 0 -331 93t-116 275zM373 354q0 -90 56 -140t151 -50q196 0 196 186q0 51 -16.5 88t-58.5 67 t-70.5 44t-93.5 41q-164 -90 -164 -236zM408 993q0 -74 48 -116.5t146 -88.5q139 80 139 205q0 150 -163 150q-80 0 -125 -39t-45 -111z" />
<glyph unicode="9" d="M137 889q0 207 116 321.5t312 114.5q227 0 336 -165t109 -503q0 -354 -108.5 -515.5t-344.5 -161.5q-147 0 -301 51v315h172v-166q51 -14 115 -14q221 0 221 399v19q-104 -88 -248 -88q-164 0 -271.5 97t-107.5 296zM379 901q0 -223 168 -223q108 0 221 86 q0 379 -205 379q-90 0 -137 -63.5t-47 -178.5z" />
<glyph unicode=":" horiz-adv-x="514" d="M133 0v248h248v-248h-248zM133 715v248h248v-248h-248z" />
<glyph unicode=";" horiz-adv-x="514" d="M133 0v248h248v-228l-66 -290l-161 26l45 244h-66zM133 715v248h248v-248h-248z" />
<glyph unicode="&#x3c;" horiz-adv-x="931" d="M94 549v180l664 371l80 -178l-521 -279l521 -244l-80 -184z" />
<glyph unicode="=" horiz-adv-x="935" d="M94 385v193h748v-193h-748zM94 721v192h748v-192h-748z" />
<glyph unicode="&#x3e;" horiz-adv-x="931" d="M94 399l520 244l-520 279l82 178l662 -371v-180l-662 -334z" />
<glyph unicode="?" horiz-adv-x="888" d="M88 1020v297q201 70 340 69q164 0 268.5 -79.5t104.5 -251.5q0 -78 -23.5 -143.5t-46 -95.5t-65.5 -77q-8 -8 -33 -34.5t-34 -37t-26.5 -35t-24.5 -44t-12.5 -47t-3.5 -58.5l5 -65h-234l-4 65q-6 88 20.5 164t50 105.5t76.5 89.5q35 39 50.5 57.5t34 60t18.5 87.5 q0 70 -39 108.5t-111 38.5q-41 0 -139 -25v-149h-172zM293 0v252h254v-252h-254z" />
<glyph unicode="@" horiz-adv-x="1910" d="M88 408q0 289 127 504.5t333 323t453 107.5q356 0 589 -209.5t233 -553.5q0 -170 -41 -294t-110.5 -188.5t-145.5 -94.5t-158 -30q-137 0 -202.5 70t-61.5 190q-119 -260 -326 -260q-121 0 -193.5 87t-72.5 259q0 264 135 449.5t340 185.5q121 0 221 -84l174 19l-98 -559 q-31 -178 88 -178q82 0 144.5 102t62.5 305q0 268 -163 426t-425 158q-279 0 -464 -197.5t-185 -537.5q0 -696 872 -637v-187q-555 -41 -840.5 171t-285.5 653zM741 328q0 -172 90 -172q82 0 163 123.5t110 295.5l26 158q-47 47 -129 47q-100 0 -180 -135t-80 -317z" />
<glyph unicode="A" horiz-adv-x="1261" d="M31 0v172h114l293 1022h-131v172h467l346 -1194h111v-172h-305l-99 365h-391l-53 -193h121v-172h-473zM479 557h303l-153 580z" />
<glyph unicode="B" horiz-adv-x="1097" d="M31 0v172h135v1022h-135v172h518q197 0 311.5 -83t114.5 -261q0 -244 -221 -313q252 -56 252 -326q0 -211 -119 -297t-336 -86h-520zM397 180h121q125 0 185.5 46t60.5 171q0 119 -63.5 165t-180.5 46h-123v-428zM397 793h121h2q213 0 213 198q0 195 -215 195h-121v-393z " />
<glyph unicode="C" horiz-adv-x="1095" d="M92 682q0 350 158 527t397 177q190 0 377 -79v-308h-172v160q-98 33 -195 33q-133 0 -227 -127t-94 -383q0 -264 88 -384t219 -120q119 0 209 41v158h172v-303q-145 -68 -262 -84q-66 -10 -137 -10q-106 0 -197.5 35.5t-169.5 112.5t-122 219t-44 335z" />
<glyph unicode="D" horiz-adv-x="1257" d="M31 0v172h135v1022h-135v172h506q289 0 458.5 -162t169.5 -522q0 -682 -663 -682h-471zM397 193h99q221 0 324.5 116.5t103.5 372.5q0 262 -103.5 377t-296.5 115h-127v-981z" />
<glyph unicode="E" horiz-adv-x="1046" d="M31 0v172h135v1022h-135v172h944v-367h-172v175h-406v-383h426v-191h-426v-407h406v184h172v-377h-944z" />
<glyph unicode="F" horiz-adv-x="1046" d="M31 0v172h135v1022h-135v172h944v-367h-172v175h-406v-383h449v-191h-449v-428h181v-172h-547z" />
<glyph unicode="G" horiz-adv-x="1253" d="M92 676q0 195 54.5 339t144.5 222t187 113.5t204 35.5q35 0 68.5 -2t64.5 -6t54.5 -8t50 -12t41 -12.5t38 -14.5t30.5 -13t27.5 -13.5t22.5 -10.5v-295h-172v152q-106 41 -229 41q-59 0 -115.5 -25.5t-110 -81t-85 -160t-31.5 -243.5q0 -268 80 -387t209 -119 q125 0 241 74v340h-237v192h471v-782h-234v74q-109 -94 -276 -94q-92 0 -174 31.5t-158 105t-121 217t-45 342.5z" />
<glyph unicode="H" horiz-adv-x="1269" d="M31 0v172h135v1022h-135v172h516v-172h-150v-403h477v403h-139v172h504v-172h-133v-1022h133v-172h-514v172h149v428h-477v-428h140v-172h-506z" />
<glyph unicode="I" horiz-adv-x="561" d="M31 0v172h135v1022h-135v172h499v-172h-133v-1022h133v-172h-499z" />
<glyph unicode="J" horiz-adv-x="571" d="M27 -76q84 59 121.5 123t37.5 184v963h-143v172h375v-1135q0 -199 -80 -298t-240 -156z" />
<glyph unicode="K" horiz-adv-x="1130" d="M31 0v172h135v1022h-135v172h506v-172h-140v-1022h140v-172h-506zM428 717l401 649h271v-172h-121l-295 -469l309 -553h107v-172h-273z" />
<glyph unicode="L" horiz-adv-x="909" d="M31 0v172h135v1022h-135v172h540v-172h-174v-993h299v176h172v-377h-837z" />
<glyph unicode="M" horiz-adv-x="1624" d="M31 0v172h135v1022h-135v172h446l336 -950l334 950h446v-172h-133v-1022h133v-172h-506v172h140v766l-334 -938h-162l-334 938v-766h140v-172h-506z" />
<glyph unicode="N" horiz-adv-x="1310" d="M31 0v172h135v1022h-135v172h407l477 -889v717h-139v172h504v-172h-133v-1194h-232l-518 965v-793h140v-172h-506z" />
<glyph unicode="O" horiz-adv-x="1320" d="M88 682q0 342 157.5 523t416 181t415 -181t156.5 -523q0 -344 -155.5 -523t-416 -179t-417 179t-156.5 523zM330 682q0 -256 91 -383t240.5 -127t239.5 127t90 383q0 258 -91 388t-238.5 130t-239.5 -130t-92 -388z" />
<glyph unicode="P" horiz-adv-x="1050" d="M31 0v172h135v1022h-135v172h481q201 0 329 -93t128 -312q0 -225 -128 -323.5t-329 -98.5h-115v-367h174v-172h-540zM397 719h105q106 0 165.5 52t59.5 183q0 125 -56.5 178.5t-166.5 53.5h-107v-467z" />
<glyph unicode="Q" horiz-adv-x="1320" d="M88 682q0 342 157.5 523t416 181t415 -181t156.5 -523q0 -303 -124 -480t-335 -214v-336h-227v336q-211 37 -335 214t-124 480zM330 682q0 -203 58 -327t159 -167v244h227v-244q217 95 217 494q0 258 -91 388t-238.5 130t-239.5 -130t-92 -388z" />
<glyph unicode="R" horiz-adv-x="1095" d="M31 0v172h135v1022h-135v172h481q74 0 138.5 -11.5t124 -41t101.5 -74.5t67.5 -115.5t25.5 -162.5q0 -285 -246 -383l229 -406h113v-172h-281l-295 541h-92v-369h140v-172h-506zM397 719h105q106 0 165.5 51t59.5 184q0 231 -223 232h-107v-467z" />
<glyph unicode="S" horiz-adv-x="997" d="M82 63v314h170v-158q135 -45 229 -45q203 0 203 182q0 90 -48 135.5t-144 86.5l-97 40q-66 29 -108.5 52.5t-96 68.5t-81 112t-27.5 155q0 186 121 283t315 97q203 0 395 -69v-318h-170v160q-104 35 -219 35q-90 0 -145 -42t-55 -124q0 -80 47 -122t141 -83l94 -41 q70 -31 115 -57.5t98 -74.5t80 -120t27 -168q0 -195 -117 -288.5t-320 -93.5q-92 0 -182 17t-120.5 27.5t-104.5 38.5z" />
<glyph unicode="T" horiz-adv-x="1069" d="M31 1020v346h1007v-346h-172v143h-215v-991h174v-172h-581v172h174v991h-215v-143h-172z" />
<glyph unicode="U" horiz-adv-x="1269" d="M31 1194v172h506v-172h-140v-723q0 -147 62.5 -219t175.5 -72q111 0 174 71t63 218v725h-139v172h506v-172h-135v-733q0 -250 -125 -365.5t-344 -115.5q-217 0 -343 115.5t-126 365.5v733h-135z" />
<glyph unicode="V" horiz-adv-x="1230" d="M31 1194v172h477v-172h-123l233 -891l232 891h-123v172h473v-172h-113l-335 -1194h-273l-336 1194h-112z" />
<glyph unicode="W" horiz-adv-x="1910" d="M31 1194v172h479v-172h-123l188 -891l222 891h-113v172h547v-172h-113l223 -891l183 891h-123v172h479v-172h-113l-282 -1194h-279l-250 979l-251 -979h-279l-281 1194h-114z" />
<glyph unicode="X" d="M31 0v172h114l271 514l-273 508h-112v172h477v-172h-102l172 -330l253 502h285v-172h-112l-254 -457l268 -565h98v-172h-477v172h119l-170 379l-262 -551h-295z" />
<glyph unicode="Y" horiz-adv-x="1099" d="M31 1194v172h469v-172h-109l158 -426l164 426h-107v172h463v-172h-113l-299 -690v-332h177v-172h-582v172h174v332l-281 690h-114z" />
<glyph unicode="Z" horiz-adv-x="1026" d="M47 0l582 1174h-373v-154h-172v346h895l-582 -1173h373v163h170v-356h-893z" />
<glyph unicode="[" horiz-adv-x="612" d="M145 -168v1698h447v-162h-215v-1374h215v-162h-447z" />
<glyph unicode="\" horiz-adv-x="667" d="M47 1352l209 39l365 -1377l-211 -39z" />
<glyph unicode="]" horiz-adv-x="612" d="M20 -6h216v1374h-216v162h447v-1698h-447v162z" />
<glyph unicode="^" horiz-adv-x="925" d="M94 825l258 541h223l256 -541h-225l-147 340l-142 -340h-223z" />
<glyph unicode="_" horiz-adv-x="841" d="M0 -279h842v-192h-842v192z" />
<glyph unicode="`" horiz-adv-x="475" d="M51 1427h254l119 -276h-221z" />
<glyph unicode="a" horiz-adv-x="1001" d="M72 266q0 170 107.5 246t285.5 76h149v47q0 84 -33.5 120t-109.5 36q-61 0 -160 -25v-123h-172v266q221 74 375 74q322 0 322 -328v-430q0 -59 53 -59q37 0 82 18v-174q-59 -30 -152 -30h-6q-139 0 -172 116q-112 -116 -273 -116h-3q-123 0 -208 67.5t-85 218.5zM305 295 q0 -139 123 -139q77 0 186 88v205h-131q-178 0 -178 -154z" />
<glyph unicode="b" horiz-adv-x="1075" d="M31 1255v172h356v-538q111 94 248 94q152 0 250 -116.5t98 -370.5q0 -516 -367 -516q-129 0 -245 90l-35 -70h-170v1255h-135zM387 238q98 -70 193 -70q80 0 126 71t46 259q0 170 -50.5 231.5t-132.5 61.5q-86 0 -182 -86v-467z" />
<glyph unicode="c" horiz-adv-x="899" d="M92 471q0 266 127 389t303 123q147 0 305 -76v-284h-172v155q-68 18 -116 19q-88 0 -150.5 -78t-62.5 -242t55 -236.5t141 -72.5q47 0 133 29v161h172v-297q-168 -81 -313 -81h-4q-78 0 -146.5 22.5t-133 73.5t-101.5 152.5t-37 242.5z" />
<glyph unicode="d" horiz-adv-x="1075" d="M92 485q0 262 109.5 380t257.5 118q139 0 229 -86v358h-143v172h366v-1202q0 -59 52 -59q37 0 81 18v-174q-64 -30 -151 -30h-6q-139 0 -172 116q-116 -116 -270 -116h-3q-158 0 -254 119.5t-96 385.5zM326 487q0 -186 44 -252.5t124 -66.5q88 0 194 96v453 q-86 74 -174 74t-138 -66t-50 -238z" />
<glyph unicode="e" horiz-adv-x="970" d="M92 477q0 246 110.5 376t293.5 130q197 0 292 -143.5t95 -444.5h-555q8 -106 59 -166.5t135 -60.5q115 0 266 96l80 -151q-113 -86 -202 -113q-72 -20 -150 -20q-190 0 -307 117.5t-117 379.5zM328 547h319q0 266 -151 266q-82 0 -121 -64.5t-47 -201.5z" />
<glyph unicode="f" horiz-adv-x="688" d="M31 0v172h135v619h-135v172h135v200q0 285 274 285q98 0 228 -49v-283h-162v141q-20 4 -47 5q-72 0 -72 -109v-190h154v-172h-154v-619h154v-172h-510z" />
<glyph unicode="g" horiz-adv-x="923" d="M47 -180q0 158 139 225q-86 47 -86 148q0 111 109 178q-131 86 -131 274q0 166 98 252t275 86q49 0 107 -10t81 -10h254v-172h-119q49 -57 49 -154q0 -160 -98 -244t-274 -84q-61 0 -107 13q-37 -31 -37 -64t20.5 -47t63.5 -18l187 -19q150 -16 232.5 -80.5t82.5 -214.5 q0 -319 -430 -319q-197 0 -306.5 65.5t-109.5 194.5zM266 -145q0 -137 203 -138q201 1 201 142q0 61 -34 85.5t-106 32.5l-168 19l-34 4q-61 -61 -62 -145zM305 645q0 -178 145.5 -178t145.5 178q0 180 -145 180q-66 0 -106 -44t-40 -136z" />
<glyph unicode="h" horiz-adv-x="1085" d="M31 0v172h135v1083h-135v172h356v-587q135 143 289 143q113 0 179.5 -69.5t66.5 -211.5v-477q0 -59 53 -59q33 0 80 18v-174q-78 -30 -151 -30h-5q-199 0 -199 213v448q0 131 -102 131q-88 0 -211 -106v-494h139v-172h-495z" />
<glyph unicode="i" horiz-adv-x="550" d="M31 791v172h356v-738q0 -59 53 -59q35 0 80 18v-174q-78 -30 -150 -30h-5q-199 0 -199 213v598h-135zM166 1145v221h221v-221h-221z" />
<glyph unicode="j" horiz-adv-x="555" d="M10 -283q82 55 121 128t39 223v723h-135v172h356v-906q0 -215 -75.5 -324.5t-229.5 -162.5zM170 1145v221h221v-221h-221z" />
<glyph unicode="k" horiz-adv-x="1030" d="M31 0v172h135v1083h-135v172h356v-1255h129v-172h-485zM418 514l203 277h-105v172h483v-172h-127l-202 -269l215 -350h114v-172h-270z" />
<glyph unicode="l" horiz-adv-x="550" d="M31 1255v172h356v-1202q0 -59 53 -59q35 0 80 18v-174q-78 -30 -150 -30h-5q-199 0 -199 213v1062h-135z" />
<glyph unicode="m" horiz-adv-x="1619" d="M31 0v172h135v619h-135v172h356v-123q135 143 289 143q182 0 229 -162q43 47 76 76t96.5 57.5t132.5 28.5q113 0 179.5 -69.5t66.5 -211.5v-477q0 -59 53 -59q35 0 80 18v-174q-78 -30 -150 -30h-5q-199 0 -199 213v448q0 131 -102 131q-86 0 -211 -108v-492h139v-172 h-361v641q0 131 -102 131q-82 0 -211 -106v-494h139v-172h-495z" />
<glyph unicode="n" horiz-adv-x="1085" d="M31 0v172h135v619h-135v172h356v-123q135 143 289 143q113 0 179.5 -69.5t66.5 -211.5v-477q0 -59 53 -59q33 0 80 18v-174q-78 -30 -151 -30h-5q-199 0 -199 213v448q0 131 -102 131q-82 0 -211 -106v-494h139v-172h-495z" />
<glyph unicode="o" horiz-adv-x="1056" d="M88 481q0 252 120 377t320 125q197 0 319 -126t122 -376q0 -252 -122 -376.5t-319 -124.5q-199 0 -319.5 124.5t-120.5 376.5zM319 481q0 -315 209 -315t209 315q0 317 -209 317l-1 1q-208 0 -208 -318z" />
<glyph unicode="p" horiz-adv-x="1075" d="M31 -238h135v1029h-135v172h356v-78q102 98 248 98q152 0 250 -116.5t98 -370.5q0 -516 -362 -516q-131 0 -234 77v-295h201v-172h-557v172zM387 238q102 -66 193 -66q80 0 126 68t46 258q0 172 -49.5 232.5t-133.5 60.5q-86 0 -182 -86v-467z" />
<glyph unicode="q" horiz-adv-x="1075" d="M92 485q0 262 109.5 380t257.5 118q143 0 229 -90v70h356v-172h-133v-1029h133v-172h-546v172h190v326q-108 -108 -244 -108h-2q-158 0 -254 119.5t-96 385.5zM326 487q0 -186 44 -250.5t124 -64.5q92 0 194 96v447q-94 76 -174 76q-88 0 -138 -66t-50 -238z" />
<glyph unicode="r" horiz-adv-x="706" d="M31 0v172h135v619h-135v172h356v-146q96 166 289 166v-219q-88 0 -165 -46t-124 -108v-438h191v-172h-547z" />
<glyph unicode="s" horiz-adv-x="813" d="M170 912.5q98 70.5 244 70.5q166 0 315 -55v-285h-172v143q-86 14 -135 15q-121 0 -121 -94q0 -45 27.5 -67t87.5 -38l90 -24q246 -69 246 -302q0 -296 -334 -296h-2q-178 0 -342 67v293h172v-154q71 -24 145 -24h6q127 0 127 102q0 86 -125 117l-88 22q-239 61 -239 279 q0 160 98 230.5z" />
<glyph unicode="t" horiz-adv-x="567" d="M31 791v172h135l29 266h192v-266h150v-172h-150v-564q0 -57 53 -57q45 0 97 20v-174q-78 -36 -167 -36h-5q-199 0 -199 213v598h-135z" />
<glyph unicode="u" horiz-adv-x="1085" d="M31 791v172h356v-652q0 -66 21.5 -98.5t74.5 -32.5q94 0 217 107v504h-135v172h357v-738q0 -59 53 -59q33 0 80 18v-174q-78 -30 -151 -30h-5q-154 0 -178 145q-135 -145 -307 -145q-115 0 -181.5 69.5t-66.5 214.5v527h-135z" />
<glyph unicode="v" horiz-adv-x="1032" d="M31 791v172h458v-172h-112l141 -531l187 703h296v-172h-114l-238 -791h-270l-232 791h-116z" />
<glyph unicode="w" horiz-adv-x="1589" d="M31 791v172h456v-172h-110l117 -515l208 687h367v-172h-104l139 -517l156 689h299v-172h-109l-209 -791h-268l-168 604l-191 -604h-266l-203 791h-114z" />
<glyph unicode="x" horiz-adv-x="989" d="M31 0v172h106l170 315l-160 304h-116v172h463v-172h-86l90 -175l178 347h282v-172h-110l-162 -291l166 -328h106v-172h-462v172h96l-96 193l-185 -365h-280z" />
<glyph unicode="y" horiz-adv-x="1015" d="M31 791v172h448v-172h-104l147 -453l178 625h285v-172h-104l-234 -713q-31 -94 -58.5 -158.5t-70.5 -132.5t-95 -108.5t-129 -70.5t-175 -38l-29 168q227 39 295 244l23 67l-269 742h-108z" />
<glyph unicode="z" horiz-adv-x="894" d="M51 0l416 770h-217v-147h-172v340h760l-418 -770h235v165h170v-358h-774z" />
<glyph unicode="{" horiz-adv-x="563" d="M20 616v129q70 20 95.5 74.5t25.5 159.5v213q0 190 100.5 264t301.5 74v-144q-170 -4 -170 -210v-187q0 -147 -41 -213.5t-129 -95.5q88 -29 129 -91.5t41 -215.5v-189q0 -207 170 -211v-141q-201 0 -301.5 74t-100.5 264v211q0 104 -25.5 159.5t-95.5 75.5z" />
<glyph unicode="|" horiz-adv-x="512" d="M145 -168v1698h222v-1698h-222z" />
<glyph unicode="}" horiz-adv-x="561" d="M20 -27q168 2 168 211v189q0 154 41 216t129 91q-88 29 -129 95.5t-41 213.5v187q0 207 -168 210v144q201 0 300.5 -74t99.5 -264v-213q0 -104 25.5 -158.5t95.5 -75.5v-129q-70 -20 -95.5 -75.5t-25.5 -159.5v-211q0 -190 -99.5 -264t-300.5 -74v141z" />
<glyph unicode="~" horiz-adv-x="790" d="M61 522q2 8 7.5 20.5t25 46.5t43 59.5t62.5 46t84 20.5q70 0 134 -29t99 -29q29 0 56.5 17.5t41.5 34.5l13 18l102 -82q-2 -8 -7 -20.5t-23.5 -46t-40 -59t-59.5 -46t-81 -20.5q-66 0 -132.5 28.5t-109.5 28.5q-27 0 -55 -17.5t-43 -33.5l-14 -19z" />
<glyph unicode="&#xa1;" horiz-adv-x="542" d="M145 0v451l21 497h211l20 -497v-451h-252zM145 1114v252h252v-252h-252z" />
<glyph unicode="&#xa2;" d="M207 471q0 221 89 342t228 156v231h195v-221q109 -12 223 -72v-284h-172v155q-68 18 -117 19q-88 0 -150.5 -78t-62.5 -242t55.5 -236.5t141.5 -72.5q47 0 133 29v161h172v-297q-119 -61 -223 -75v-224h-195v228q-139 29 -228 141.5t-89 339.5z" />
<glyph unicode="&#xa3;" d="M176 0v170q143 174 143 457h-143v172h143v139q0 193 101.5 290t263.5 97q145 0 287 -61v-285h-172v147q-49 12 -107 13q-72 0 -111.5 -51.5t-39.5 -147.5v-141h309v-172h-309q0 -168 -29 -268.5t-92 -176.5h379v170h172v-352h-795z" />
<glyph unicode="&#xa4;" d="M72 428v160h121q0 10 -1.5 31.5t-1.5 31.5q0 51 3 74h-121v162h145q53 217 197.5 327.5t322.5 110.5q35 0 69 -3t59.5 -6t54 -9.5t45 -10.5t41 -13t34 -13t31 -13.5t23.5 -9.5v-268h-170v121q-92 31 -183 30q-211 0 -288 -243h438v-162h-465q-4 -45 -4 -74q0 -10 2 -31.5 t2 -31.5h465v-160h-447q53 -252 281 -252q88 0 199 41v129h170v-278q-186 -88 -385 -88q-82 0 -154 20t-143.5 68.5t-125 139.5t-77.5 220h-137z" />
<glyph unicode="&#xa5;" d="M55 1133v172h469v-172h-108l157 -365l160 365h-102v172h463v-172h-113l-203 -426h238v-164h-314l-18 -113h332v-164h-334v-94h176v-172h-582v172h175v94h-332v164h330l-17 113h-313v164h241l-190 426h-115z" />
<glyph unicode="&#xa6;" horiz-adv-x="512" d="M145 -168v692h222v-692h-222zM145 838v692h222v-692h-222z" />
<glyph unicode="&#xa7;" horiz-adv-x="841" d="M72 594q0 147 145 215q-119 76 -119 225q0 147 98.5 219t239.5 72q139 0 305 -53v-287h-172v141q-76 16 -120 17q-55 0 -89 -24.5t-34 -69.5q0 -31 18 -52.5t36.5 -31t59.5 -23.5l107 -39q109 -39 166 -95.5t57 -156.5q0 -141 -135 -217q111 -74 110 -229 q0 -150 -91 -218.5t-244 -68.5q-156 0 -322 68v293h172v-156q63 -23 133 -23q125 0 125 97q0 49 -30.5 74.5t-94.5 47.5l-94 33q-45 16 -78 32.5t-70.5 44.5t-58 70t-20.5 95zM287 651q0 -31 17.5 -52t33.5 -29.5t53 -22.5l119 -43q47 39 47 98q0 74 -86 103l-133 47 q-51 -47 -51 -101z" />
<glyph unicode="&#xa8;" horiz-adv-x="700" d="M61 1174v210h211v-210h-211zM426 1174v210h213v-210h-213z" />
<glyph unicode="&#xa9;" horiz-adv-x="1601" d="M88 684q0 346 203 533.5t510 187.5q309 0 510.5 -187.5t201.5 -533.5q0 -348 -201.5 -535.5t-510.5 -187.5t-511 187.5t-202 535.5zM330 684q0 -254 130 -392t341 -138q213 0 342 137t129 393q0 254 -130 391t-341 137t-341 -137t-130 -391zM467 682q0 209 100.5 316.5 t253.5 107.5q125 0 250 -90l-59 -125q-106 63 -181 63q-72 0 -125 -66.5t-53 -205.5q0 -145 49.5 -206.5t118.5 -61.5q82 0 183 67l69 -123q-127 -98 -264 -98q-147 0 -244.5 101.5t-97.5 320.5z" />
<glyph unicode="&#xaa;" horiz-adv-x="831" d="M88 807q0 260 336 260h100v29q0 55 -21.5 77.5t-74.5 22.5q-76 0 -244 -61l-45 163q190 88 324 88q281 0 280 -274v-530h-219v65q-86 -82 -182 -82q-104 0 -179 57.5t-75 184.5zM129 0v203h614v-203h-614zM315 829q0 -92 80 -92q61 0 129 51v150h-86q-123 0 -123 -109z " />
<glyph unicode="&#xab;" horiz-adv-x="995" d="M61 563l301 418l160 -96l-215 -322l215 -321l-160 -97zM473 563l301 418l160 -96l-215 -322l215 -321l-160 -97z" />
<glyph unicode="&#xac;" horiz-adv-x="1030" d="M94 528v193h842v-471h-201v278h-641z" />
<glyph unicode="&#xad;" horiz-adv-x="544" d="M61 504v196h422v-196h-422z" />
<glyph unicode="&#xae;" horiz-adv-x="1601" d="M88 684q0 346 203 533.5t510 187.5q309 0 510.5 -187.5t201.5 -533.5q0 -348 -201.5 -535.5t-510.5 -187.5t-511 187.5t-202 535.5zM330 684q0 -254 130 -392t341 -138q213 0 342 137t129 393q0 254 -130 391t-341 137t-341 -137t-130 -391zM557 276v822h227 q127 0 211 -58.5t84 -193.5q0 -166 -137 -230l201 -311l-185 -37l-192 318h-29v-310h-180zM737 727h41q57 0 86 23.5t29 91.5q0 61 -27.5 85.5t-85.5 24.5h-43v-225z" />
<glyph unicode="&#xaf;" horiz-adv-x="552" d="M41 1202v182h471v-182h-471z" />
<glyph unicode="&#xb0;" horiz-adv-x="839" d="M68 1036.5q0 180.5 100 265t251.5 84.5t252 -84.5t100.5 -265t-100.5 -264.5t-252 -84t-251.5 84t-100 264.5zM299 1036q0 -180 121 -180q119 0 119 180q0 182 -119 183q-121 0 -121 -183z" />
<glyph unicode="&#xb1;" horiz-adv-x="937" d="M94 0v203h750v-203h-750zM94 537v192h275v297h200v-297h275v-192h-275v-248h-200v248h-275z" />
<glyph unicode="&#xb2;" horiz-adv-x="929" d="M94 399l230 232l-230 229l142 144l231 -232l229 229l135 -137l-229 -227l234 -234l-144 -141l-231 232l-230 -230z" />
<glyph unicode="&#xb3;" horiz-adv-x="929" d="M94 399l230 232l-230 229l142 144l231 -232l229 229l135 -137l-229 -227l234 -234l-144 -141l-231 232l-230 -230z" />
<glyph unicode="&#xb4;" horiz-adv-x="475" d="M51 1151l121 276h252l-150 -276h-223z" />
<glyph unicode="&#xb6;" horiz-adv-x="1165" d="M82 971q0 199 126 297t324 98h97v-1366h-385v172h164v426q-154 18 -240 116.5t-86 256.5zM778 0v1366h357v-172h-136v-1022h136v-172h-357z" />
<glyph unicode="&#xb7;" horiz-adv-x="520" d="M133 567v254h254v-254h-254z" />
<glyph unicode="&#xb8;" horiz-adv-x="370" d="M61 -61h248v-228l-59 -231l-160 26l39 195h-68v238z" />
<glyph unicode="&#xb9;" horiz-adv-x="929" d="M94 399l230 232l-230 229l142 144l231 -232l229 229l135 -137l-229 -227l234 -234l-144 -141l-231 232l-230 -230z" />
<glyph unicode="&#xba;" horiz-adv-x="933" d="M88 975q0 201 106.5 306t272.5 105q164 0 271.5 -106t107.5 -305t-107.5 -304.5t-271.5 -105.5t-271.5 105.5t-107.5 304.5zM129 0v203h676v-203h-676zM326 975q0 -231 141 -231t141 231q0 233 -141 233t-141 -233z" />
<glyph unicode="&#xbb;" horiz-adv-x="995" d="M61 242l215 321l-215 322l160 96l301 -418l-301 -418zM473 242l215 321l-215 322l160 96l301 -418l-301 -418z" />
<glyph unicode="&#xbc;" horiz-adv-x="929" d="M94 399l230 232l-230 229l142 144l231 -232l229 229l135 -137l-229 -227l234 -234l-144 -141l-231 232l-230 -230z" />
<glyph unicode="&#xbd;" horiz-adv-x="929" d="M94 399l230 232l-230 229l142 144l231 -232l229 229l135 -137l-229 -227l234 -234l-144 -141l-231 232l-230 -230z" />
<glyph unicode="&#xbe;" horiz-adv-x="929" d="M94 399l230 232l-230 229l142 144l231 -232l229 229l135 -137l-229 -227l234 -234l-144 -141l-231 232l-230 -230z" />
<glyph unicode="&#xbf;" horiz-adv-x="888" d="M88 311q0 78 23.5 143.5t46 95.5t65.5 77q10 10 34 34.5t34 37t27.5 36t24.5 43t12 47t3 58.5l-4 65h232l4 -65q6 -88 -20.5 -164t-50 -105.5t-77.5 -89.5q-35 -39 -50 -57t-33.5 -60t-18.5 -88q0 -70 39 -108.5t110 -38.5q43 0 142 25v149h170v-297q-201 -70 -340 -69 q-164 0 -268.5 79.5t-104.5 251.5zM344 1114v252h252v-252h-252z" />
<glyph unicode="&#xc0;" horiz-adv-x="1261" d="M31 0v172h114l293 1022h-131v172h467l346 -1194h111v-172h-305l-99 365h-391l-53 -193h121v-172h-473zM375 1642h254l98 -215h-221zM479 557h303l-153 580z" />
<glyph unicode="&#xc1;" horiz-adv-x="1261" d="M31 0v172h114l293 1022h-131v172h467l346 -1194h111v-172h-305l-99 365h-391l-53 -193h121v-172h-473zM479 557h303l-153 580zM520 1427l101 215h251l-129 -215h-223z" />
<glyph unicode="&#xc2;" horiz-adv-x="1261" d="M31 0v172h114l293 1022h-131v172h467l346 -1194h111v-172h-305l-99 365h-391l-53 -193h121v-172h-473zM297 1427l184 215h299l185 -215h-271l-63 80l-68 -80h-266zM479 557h303l-153 580z" />
<glyph unicode="&#xc3;" horiz-adv-x="1261" d="M31 0v172h114l293 1022h-131v172h467l346 -1194h111v-172h-305l-99 365h-391l-53 -193h121v-172h-473zM338 1526l6 18t21.5 42t37 52.5t54.5 41t73 18.5q59 0 118 -24.5t85.5 -24.5t51 11t34.5 23l10 13l95 -76q-2 -6 -6.5 -18.5t-19.5 -42t-34.5 -52t-52.5 -41 t-70 -18.5q-53 0 -113.5 24.5t-88.5 24.5q-31 0 -57.5 -12t-39.5 -25l-10 -12zM479 557h303l-153 580z" />
<glyph unicode="&#xc4;" horiz-adv-x="1261" d="M31 0v172h114l293 1022h-131v172h467l346 -1194h111v-172h-305l-99 365h-391l-53 -193h121v-172h-473zM342 1427v211h211v-211h-211zM479 557h303l-153 580zM707 1427v211h213v-211h-213z" />
<glyph unicode="&#xc5;" horiz-adv-x="1261" d="M31 0v172h114l308 1069q-70 59 -70 172q0 106 65.5 164.5t184.5 58.5q117 0 182.5 -59t65.5 -164q0 -113 -70 -172l309 -1069h111v-172h-305l-99 365h-391l-53 -193h121v-172h-473zM479 557h303l-153 580zM557 1411q0 -100 76 -100q72 0 72 102q0 100 -72 100 q-76 0 -76 -102z" />
<glyph unicode="&#xc6;" horiz-adv-x="1619" d="M31 0v172h114l451 1022h-180v172h1132v-367h-170v175h-344v-383h385v-191h-385v-407h344v184h170v-377h-747v365h-324l-82 -193h117v-172h-481zM547 557h254v614z" />
<glyph unicode="&#xc7;" horiz-adv-x="1095" d="M92 682q0 350 158 527t397 177q190 0 377 -79v-308h-172v160q-98 33 -195 33q-133 0 -227 -127t-94 -383q0 -264 88 -384t219 -120q119 0 209 41v158h172v-303q-145 -68 -262 -84q-66 -10 -137 -10q-106 0 -197.5 35.5t-169.5 112.5t-122 219t-44 335zM492 -61h247v-228 l-59 -231l-160 26l39 195h-67v238z" />
<glyph unicode="&#xc8;" horiz-adv-x="1046" d="M31 0v172h135v1022h-135v172h944v-367h-172v175h-406v-383h426v-191h-426v-407h406v184h172v-377h-944zM305 1642h254l98 -215h-221z" />
<glyph unicode="&#xc9;" horiz-adv-x="1046" d="M31 0v172h135v1022h-135v172h944v-367h-172v175h-406v-383h426v-191h-426v-407h406v184h172v-377h-944zM428 1427l100 215h252l-129 -215h-223z" />
<glyph unicode="&#xca;" horiz-adv-x="1046" d="M31 0v172h135v1022h-135v172h944v-367h-172v175h-406v-383h426v-191h-426v-407h406v184h172v-377h-944zM215 1427l184 215h299l185 -215h-271l-63 80l-68 -80h-266z" />
<glyph unicode="&#xcb;" horiz-adv-x="1046" d="M31 0v172h135v1022h-135v172h944v-367h-172v175h-406v-383h426v-191h-426v-407h406v184h172v-377h-944zM236 1427v211h210v-211h-210zM600 1427v211h213v-211h-213z" />
<glyph unicode="&#xcc;" horiz-adv-x="561" d="M31 0v172h135v1022h-135v172h499v-172h-133v-1022h133v-172h-499zM43 1642h254l98 -215h-221z" />
<glyph unicode="&#xcd;" horiz-adv-x="561" d="M31 0v172h135v1022h-135v172h499v-172h-133v-1022h133v-172h-499zM174 1427l100 215h252l-129 -215h-223z" />
<glyph unicode="&#xce;" horiz-adv-x="561" d="M-53 1427l184 215h299l184 -215h-270l-63 80l-68 -80h-266zM31 0v172h135v1022h-135v172h499v-172h-133v-1022h133v-172h-499z" />
<glyph unicode="&#xcf;" horiz-adv-x="561" d="M-8 1427v211h211v-211h-211zM31 0v172h135v1022h-135v172h499v-172h-133v-1022h133v-172h-499zM356 1427v211h213v-211h-213z" />
<glyph unicode="&#xd0;" horiz-adv-x="1257" d="M31 0v172h135v428h-82v191h82v403h-135v172h506q289 0 458.5 -162t169.5 -522q0 -682 -663 -682h-471zM397 193h99q221 0 324.5 116.5t103.5 372.5q0 262 -103.5 377t-296.5 115h-127v-383h312v-191h-312v-407z" />
<glyph unicode="&#xd1;" horiz-adv-x="1310" d="M31 0v172h135v1022h-135v172h407l477 -889v717h-139v172h504v-172h-133v-1194h-232l-518 965v-793h140v-172h-506zM362 1526q2 6 6.5 18t22 42t36.5 52.5t54 41t74 18.5q59 0 117.5 -24.5t85 -24.5t51.5 11t35 23l10 13l94 -76q-2 -6 -6 -18.5t-19.5 -42t-35 -52t-52 -41 t-69.5 -18.5q-53 0 -113.5 24.5t-89.5 24.5q-31 0 -57.5 -12t-38.5 -25l-10 -12z" />
<glyph unicode="&#xd2;" horiz-adv-x="1320" d="M88 682q0 342 157.5 523t416 181t415 -181t156.5 -523q0 -344 -155.5 -523t-416 -179t-417 179t-156.5 523zM330 682q0 -256 91 -383t240.5 -127t239.5 127t90 383q0 258 -91 388t-238.5 130t-239.5 -130t-92 -388zM414 1642h254l98 -215h-221z" />
<glyph unicode="&#xd3;" horiz-adv-x="1320" d="M88 682q0 342 157.5 523t416 181t415 -181t156.5 -523q0 -344 -155.5 -523t-416 -179t-417 179t-156.5 523zM330 682q0 -256 91 -383t240.5 -127t239.5 127t90 383q0 258 -91 388t-238.5 130t-239.5 -130t-92 -388zM541 1427l100 215h252l-129 -215h-223z" />
<glyph unicode="&#xd4;" horiz-adv-x="1320" d="M88 682q0 342 157.5 523t416 181t415 -181t156.5 -523q0 -344 -155.5 -523t-416 -179t-417 179t-156.5 523zM328 1427l184 215h299l184 -215h-270l-63 80l-68 -80h-266zM330 682q0 -256 91 -383t240.5 -127t239.5 127t90 383q0 258 -91 388t-238.5 130t-239.5 -130 t-92 -388z" />
<glyph unicode="&#xd5;" horiz-adv-x="1320" d="M88 682q0 342 157.5 523t416 181t415 -181t156.5 -523q0 -344 -155.5 -523t-416 -179t-417 179t-156.5 523zM330 682q0 -256 91 -383t240.5 -127t239.5 127t90 383q0 258 -91 388t-238.5 130t-239.5 -130t-92 -388zM369 1526l6 18t21.5 42t37 52.5t54 41t73.5 18.5 q59 0 117.5 -24.5t85.5 -24.5t51.5 11t34.5 23l10 13l94 -76q-2 -6 -6 -18.5t-19.5 -42t-35 -52t-52 -41t-69.5 -18.5q-53 0 -113.5 24.5t-89.5 24.5q-31 0 -57.5 -12t-36.5 -25l-12 -12z" />
<glyph unicode="&#xd6;" horiz-adv-x="1320" d="M88 682q0 342 157.5 523t416 181t415 -181t156.5 -523q0 -344 -155.5 -523t-416 -179t-417 179t-156.5 523zM311 1427v211h211v-211h-211zM330 682q0 -256 91 -383t240.5 -127t239.5 127t90 383q0 258 -91 388t-238.5 130t-239.5 -130t-92 -388zM799 1427v211h213v-211 h-213z" />
<glyph unicode="&#xd7;" horiz-adv-x="929" d="M94 399l230 232l-230 229l142 144l231 -232l229 229l135 -137l-229 -227l234 -234l-144 -141l-231 232l-230 -230z" />
<glyph unicode="&#xd8;" horiz-adv-x="1331" d="M88 -57l150 229q-145 184 -146 510q0 342 158 523t416 181q182 0 315 -90l131 201l131 -72l-153 -229q147 -182 147 -514q0 -344 -155.5 -523t-415.5 -179q-186 0 -322 92l-133 -201zM334 682q0 -170 47 -295l481 731q-82 82 -196 82q-147 0 -239.5 -131t-92.5 -387z M465 252q80 -80 201 -80q147 0 238 127t91 383q0 176 -49 301z" />
<glyph unicode="&#xd9;" horiz-adv-x="1269" d="M31 1194v172h506v-172h-140v-723q0 -147 62.5 -219t175.5 -72q111 0 174 71t63 218v725h-139v172h506v-172h-135v-733q0 -250 -125 -365.5t-344 -115.5q-217 0 -343 115.5t-126 365.5v733h-135zM391 1642h254l98 -215h-221z" />
<glyph unicode="&#xda;" horiz-adv-x="1269" d="M31 1194v172h506v-172h-140v-723q0 -147 62.5 -219t175.5 -72q111 0 174 71t63 218v725h-139v172h506v-172h-135v-733q0 -250 -125 -365.5t-344 -115.5q-217 0 -343 115.5t-126 365.5v733h-135zM528 1427l101 215h252l-129 -215h-224z" />
<glyph unicode="&#xdb;" horiz-adv-x="1269" d="M31 1194v172h506v-172h-140v-723q0 -147 62.5 -219t175.5 -72q111 0 174 71t63 218v725h-139v172h506v-172h-135v-733q0 -250 -125 -365.5t-344 -115.5q-217 0 -343 115.5t-126 365.5v733h-135zM301 1427l184 215h299l185 -215h-271l-63 80l-68 -80h-266z" />
<glyph unicode="&#xdc;" horiz-adv-x="1269" d="M31 1194v172h506v-172h-140v-723q0 -147 62.5 -219t175.5 -72q111 0 174 71t63 218v725h-139v172h506v-172h-135v-733q0 -250 -125 -365.5t-344 -115.5q-217 0 -343 115.5t-126 365.5v733h-135zM346 1427v211h211v-211h-211zM711 1427v211h213v-211h-213z" />
<glyph unicode="&#xdd;" horiz-adv-x="1099" d="M31 1194v172h469v-172h-109l158 -426l164 426h-107v172h463v-172h-113l-299 -690v-332h177v-172h-582v172h174v332l-281 690h-114zM438 1427l101 215h252l-129 -215h-224z" />
<glyph unicode="&#xde;" horiz-adv-x="1050" d="M31 0v172h135v1022h-135v172h499v-172h-133v-84h115q201 0 329 -93t128 -312q0 -225 -128 -324.5t-329 -99.5h-115v-109h133v-172h-499zM397 463h105q106 0 165.5 52t59.5 183q0 123 -56.5 176.5t-166.5 53.5h-107v-465z" />
<glyph unicode="&#xdf;" horiz-adv-x="1128" d="M31 0v172h135v619h-135v172h135v108q0 377 397 377q172 0 276.5 -86t104.5 -219q0 -141 -82 -252q-8 -10 -26.5 -35t-26.5 -36t-19.5 -29.5t-15.5 -34t-4 -29.5q0 -47 72 -104l80 -64q68 -55 106.5 -118t38.5 -169q0 -154 -88 -223t-223 -69q-145 0 -285 49v301h170v-156 q55 -12 100 -12t71 24.5t26 71.5q0 41 -19.5 67.5t-60.5 59.5l-76 59q-63 51 -99 102.5t-36 129.5q0 18 2 35.5t4 31t7 29.5t8 26.5t11.5 27t11.5 22.5t13 23.5t12 21.5t14.5 22.5t14.5 20.5q68 102 68 188q0 61 -40 99.5t-120 38.5q-84 0 -125 -53.5t-41 -133.5v-1075h-356 z" />
<glyph unicode="&#xe0;" horiz-adv-x="1001" d="M72 266q0 170 107.5 246t285.5 76h149v47q0 84 -33.5 120t-109.5 36q-61 0 -160 -25v-123h-172v266q221 74 375 74q322 0 322 -328v-430q0 -59 53 -59q37 0 82 18v-174q-61 -31 -158 -30q-139 0 -172 116q-113 -117 -276 -116q-123 0 -208 67.5t-85 218.5zM236 1427h253 l119 -276h-221zM305 295q0 -139 123 -139q77 0 186 88v205h-131q-178 0 -178 -154z" />
<glyph unicode="&#xe1;" horiz-adv-x="1001" d="M72 266q0 170 107.5 246t285.5 76h149v47q0 84 -33.5 120t-109.5 36q-61 0 -160 -25v-123h-172v266q221 74 375 74q322 0 322 -328v-430q0 -59 53 -59q37 0 82 18v-174q-61 -31 -158 -30q-139 0 -172 116q-113 -117 -276 -116q-123 0 -208 67.5t-85 218.5zM305 295 q0 -139 123 -139q77 0 186 88v205h-131q-178 0 -178 -154zM360 1151l121 276h252l-149 -276h-224z" />
<glyph unicode="&#xe2;" horiz-adv-x="1001" d="M72 266q0 170 107.5 246t285.5 76h149v47q0 84 -33.5 120t-109.5 36q-61 0 -160 -25v-123h-172v266q221 74 375 74q322 0 322 -328v-430q0 -59 53 -59q37 0 82 18v-174q-61 -31 -158 -30q-139 0 -172 116q-113 -117 -276 -116q-123 0 -208 67.5t-85 218.5zM145 1151 l185 276h299l184 -276h-250l-84 141l-88 -141h-246zM305 295q0 -139 123 -139q77 0 186 88v205h-131q-178 0 -178 -154z" />
<glyph unicode="&#xe3;" horiz-adv-x="1001" d="M72 266q0 170 107.5 246t285.5 76h149v47q0 84 -33.5 120t-109.5 36q-61 0 -160 -25v-123h-172v266q221 74 375 74q322 0 322 -328v-430q0 -59 53 -59q37 0 82 18v-174q-61 -31 -158 -30q-139 0 -172 116q-113 -117 -276 -116q-123 0 -208 67.5t-85 218.5zM166 1233 q2 6 6 18.5t21.5 42t37 52t54 41t73.5 18.5q59 0 118 -24.5t85.5 -24.5t51 12t34.5 25l10 10l95 -76q-2 -6 -6.5 -18.5t-19.5 -42t-34.5 -52t-52.5 -41t-70 -18.5q-53 0 -113.5 24.5t-88.5 24.5q-31 0 -57.5 -12t-39.5 -25l-10 -12zM305 295q0 -139 123 -139q77 0 186 88 v205h-131q-178 0 -178 -154z" />
<glyph unicode="&#xe4;" horiz-adv-x="1001" d="M72 266q0 170 107.5 246t285.5 76h149v47q0 84 -33.5 120t-109.5 36q-61 0 -160 -25v-123h-172v266q221 74 375 74q322 0 322 -328v-430q0 -59 53 -59q37 0 82 18v-174q-61 -31 -158 -30q-139 0 -172 116q-113 -117 -276 -116q-123 0 -208 67.5t-85 218.5zM184 1174v210 h211v-210h-211zM305 295q0 -139 123 -139q77 0 186 88v205h-131q-178 0 -178 -154zM549 1174v210h213v-210h-213z" />
<glyph unicode="&#xe5;" horiz-adv-x="1001" d="M72 266q0 170 107.5 246t285.5 76h149v47q0 84 -33.5 120t-109.5 36q-61 0 -160 -25v-123h-172v266q221 74 375 74q322 0 322 -328v-430q0 -59 53 -59q37 0 82 18v-174q-61 -31 -158 -30q-139 0 -172 116q-113 -117 -276 -116q-123 0 -208 67.5t-85 218.5zM231 1331.5 q0 106.5 65.5 164.5t184.5 58q117 0 182.5 -59.5t65.5 -163.5q0 -106 -64.5 -166.5t-183.5 -60.5t-184.5 60.5t-65.5 167zM305 295q0 -139 123 -139q77 0 186 88v205h-131q-178 0 -178 -154zM406 1329q0 -100 75 -100q72 0 72 102q0 100 -72 101q-76 0 -75 -103z" />
<glyph unicode="&#xe6;" horiz-adv-x="1492" d="M72 266q0 170 107.5 246t285.5 76h149v47q0 84 -33.5 120t-109.5 36q-61 0 -160 -25v-123h-172v266q221 74 375 74q178 0 250 -115q100 115 254 115q197 0 292 -143.5t95 -444.5h-557q8 -106 60.5 -166.5t135.5 -60.5q115 0 267 96l78 -151q-51 -39 -76 -56.5t-106 -47 t-169 -29.5q-238 0 -333 172q-61 -82 -134 -127t-194 -45q-131 0 -218 67.5t-87 218.5zM305 295q0 -139 127 -139q76 0 129 54t53 142v97h-131q-178 0 -178 -154zM848 547h321q0 266 -151 266q-82 0 -122 -65.5t-48 -200.5z" />
<glyph unicode="&#xe7;" horiz-adv-x="899" d="M92 471q0 266 127 389t303 123q147 0 305 -76v-284h-172v155q-68 18 -116 19q-88 0 -150.5 -78t-62.5 -242t55 -236.5t141 -72.5q47 0 133 29v161h172v-297q-170 -82 -317 -81q-78 0 -146.5 22.5t-133 73.5t-101.5 152.5t-37 242.5zM379 -61h248v-228l-60 -231l-159 26 l38 195h-67v238z" />
<glyph unicode="&#xe8;" horiz-adv-x="970" d="M92 477q0 246 110.5 376t293.5 130q197 0 292 -143.5t95 -444.5h-555q8 -106 59 -166.5t135 -60.5q115 0 266 96l80 -151q-113 -86 -202 -113q-72 -20 -150 -20q-190 0 -307 117.5t-117 379.5zM225 1427h254l119 -276h-221zM328 547h319q0 266 -151 266q-82 0 -121 -64.5 t-47 -201.5z" />
<glyph unicode="&#xe9;" horiz-adv-x="970" d="M92 477q0 246 110.5 376t293.5 130q197 0 292 -143.5t95 -444.5h-555q8 -106 59 -166.5t135 -60.5q115 0 266 96l80 -151q-113 -86 -202 -113q-72 -20 -150 -20q-190 0 -307 117.5t-117 379.5zM328 547h319q0 266 -151 266q-82 0 -121 -64.5t-47 -201.5zM369 1151 l120 276h252l-149 -276h-223z" />
<glyph unicode="&#xea;" horiz-adv-x="970" d="M92 477q0 246 110.5 376t293.5 130q197 0 292 -143.5t95 -444.5h-555q8 -106 59 -166.5t135 -60.5q115 0 266 96l80 -151q-113 -86 -202 -113q-72 -20 -150 -20q-190 0 -307 117.5t-117 379.5zM152 1151l184 276h299l184 -276h-250l-84 141l-88 -141h-245zM328 547h319 q0 266 -151 266q-82 0 -121 -64.5t-47 -201.5z" />
<glyph unicode="&#xeb;" horiz-adv-x="970" d="M92 477q0 246 110.5 376t293.5 130q197 0 292 -143.5t95 -444.5h-555q8 -106 59 -166.5t135 -60.5q115 0 266 96l80 -151q-113 -86 -202 -113q-72 -20 -150 -20q-190 0 -307 117.5t-117 379.5zM197 1174v210h211v-210h-211zM328 547h319q0 266 -151 266q-82 0 -121 -64.5 t-47 -201.5zM561 1174v210h213v-210h-213z" />
<glyph unicode="&#xec;" horiz-adv-x="550" d="M12 1427h254l119 -276h-221zM31 791v172h356v-738q0 -59 53 -59q35 0 80 18v-174q-80 -31 -155 -30q-199 0 -199 213v598h-135z" />
<glyph unicode="&#xed;" horiz-adv-x="550" d="M31 791v172h356v-738q0 -59 53 -59q35 0 80 18v-174q-80 -31 -155 -30q-199 0 -199 213v598h-135zM162 1151l121 276h252l-150 -276h-223z" />
<glyph unicode="&#xee;" horiz-adv-x="550" d="M-57 1151l184 276h299l184 -276h-250l-84 141l-88 -141h-245zM31 791v172h356v-738q0 -59 53 -59q35 0 80 18v-174q-80 -31 -155 -30q-199 0 -199 213v598h-135z" />
<glyph unicode="&#xef;" horiz-adv-x="550" d="M8 1174v210h211v-210h-211zM31 791v172h356v-738q0 -59 53 -59q35 0 80 18v-174q-80 -31 -155 -30q-199 0 -199 213v598h-135zM332 1174v210h213v-210h-213z" />
<glyph unicode="&#xf0;" horiz-adv-x="1040" d="M88 416q0 231 114.5 344.5t278.5 113.5q139 0 232 -92q0 152 -19 250l-237 -96v182l176 72q-51 78 -150 78q-45 0 -141 -23v-149h-172v293q178 59 340 59q223 0 328 -174l151 59v-180l-86 -35q49 -174 49 -469q0 -199 -28.5 -333t-89 -206.5t-136 -101t-184.5 -28.5 q-195 0 -310.5 110.5t-115.5 325.5zM317 432q0 -268 203 -268q201 0 201 395v49q-109 86 -211 86q-86 0 -139.5 -62.5t-53.5 -199.5z" />
<glyph unicode="&#xf1;" horiz-adv-x="1085" d="M31 0v172h135v619h-135v172h356v-123q135 143 289 143q113 0 179.5 -69.5t66.5 -211.5v-477q0 -59 53 -59q33 0 80 18v-174q-80 -31 -156 -30q-199 0 -199 213v448q0 131 -102 131q-82 0 -211 -106v-494h139v-172h-495zM250 1233q2 6 6 18.5t21.5 42t37 52t54 41 t73.5 18.5q59 0 117.5 -24.5t85.5 -24.5t51.5 12t34.5 25l10 10l95 -76q-2 -6 -6.5 -18.5t-19.5 -42t-34.5 -52t-52.5 -41t-70 -18.5q-53 0 -113.5 24.5t-88.5 24.5q-31 0 -57.5 -12t-37.5 -25l-12 -12z" />
<glyph unicode="&#xf2;" horiz-adv-x="1056" d="M88 481q0 252 120 377t320 125q197 0 319 -126t122 -376q0 -252 -122 -376.5t-319 -124.5q-199 0 -319.5 124.5t-120.5 376.5zM268 1427h254l119 -276h-221zM319 481q0 -315 209 -315t209 315q0 317 -209 317.5t-209 -317.5z" />
<glyph unicode="&#xf3;" horiz-adv-x="1056" d="M88 481q0 252 120 377t320 125q197 0 319 -126t122 -376q0 -252 -122 -376.5t-319 -124.5q-199 0 -319.5 124.5t-120.5 376.5zM319 481q0 -315 209 -315t209 315q0 317 -209 317.5t-209 -317.5zM418 1151l121 276h252l-150 -276h-223z" />
<glyph unicode="&#xf4;" horiz-adv-x="1056" d="M88 481q0 252 120 377t320 125q197 0 319 -126t122 -376q0 -252 -122 -376.5t-319 -124.5q-199 0 -319.5 124.5t-120.5 376.5zM195 1151l184 276h299l184 -276h-250l-84 141l-88 -141h-245zM319 481q0 -315 209 -315t209 315q0 317 -209 317.5t-209 -317.5z" />
<glyph unicode="&#xf5;" horiz-adv-x="1056" d="M88 481q0 252 120 377t320 125q197 0 319 -126t122 -376q0 -252 -122 -376.5t-319 -124.5q-199 0 -319.5 124.5t-120.5 376.5zM225 1233q2 6 6.5 18.5t21.5 42t36.5 52t54.5 41t74 18.5q59 0 117.5 -24.5t85 -24.5t51 12t35.5 25l10 10l94 -76q-2 -6 -6 -18.5t-19.5 -42 t-35 -52t-52 -41t-69.5 -18.5q-53 0 -113.5 24.5t-89.5 24.5q-31 0 -57.5 -12t-36.5 -25l-13 -12zM319 481q0 -315 209 -315t209 315q0 317 -209 317.5t-209 -317.5z" />
<glyph unicode="&#xf6;" horiz-adv-x="1056" d="M88 481q0 252 120 377t320 125q197 0 319 -126t122 -376q0 -252 -122 -376.5t-319 -124.5q-199 0 -319.5 124.5t-120.5 376.5zM240 1174v210h211v-210h-211zM319 481q0 -315 209 -315t209 315q0 317 -209 317.5t-209 -317.5zM604 1174v210h213v-210h-213z" />
<glyph unicode="&#xf7;" horiz-adv-x="925" d="M94 528v193h737v-193h-737zM338 145v248h248v-248h-248zM338 854v248h248v-248h-248z" />
<glyph unicode="&#xf8;" horiz-adv-x="1056" d="M88 481q0 248 122 375t318 127q111 0 201 -43l90 152l121 -64l-102 -166q131 -135 131 -381q0 -248 -123 -374.5t-318 -126.5q-115 0 -204 45l-95 -156l-112 63l100 168q-129 133 -129 381zM319 481q0 -98 25 -176l283 469q-41 29 -99 29q-209 0 -209 -322zM428 193 q43 -31 100 -31q207 0 207 319q0 106 -22 178z" />
<glyph unicode="&#xf9;" horiz-adv-x="1085" d="M31 791v172h356v-652q0 -66 21.5 -98.5t74.5 -32.5q94 0 217 107v504h-135v172h357v-738q0 -59 53 -59q33 0 80 18v-174q-80 -31 -156 -30q-154 0 -178 145q-135 -145 -307 -145q-115 0 -181.5 69.5t-66.5 214.5v527h-135zM281 1427h254l118 -276h-221z" />
<glyph unicode="&#xfa;" horiz-adv-x="1085" d="M31 791v172h356v-652q0 -66 21.5 -98.5t74.5 -32.5q94 0 217 107v504h-135v172h357v-738q0 -59 53 -59q33 0 80 18v-174q-80 -31 -156 -30q-154 0 -178 145q-135 -145 -307 -145q-115 0 -181.5 69.5t-66.5 214.5v527h-135zM428 1151l121 276h252l-150 -276h-223z" />
<glyph unicode="&#xfb;" horiz-adv-x="1085" d="M31 791v172h356v-652q0 -66 21.5 -98.5t74.5 -32.5q94 0 217 107v504h-135v172h357v-738q0 -59 53 -59q33 0 80 18v-174q-80 -31 -156 -30q-154 0 -178 145q-135 -145 -307 -145q-115 0 -181.5 69.5t-66.5 214.5v527h-135zM209 1151l184 276h299l185 -276h-250l-84 141 l-88 -141h-246z" />
<glyph unicode="&#xfc;" horiz-adv-x="1085" d="M31 791v172h356v-652q0 -66 21.5 -98.5t74.5 -32.5q94 0 217 107v504h-135v172h357v-738q0 -59 53 -59q33 0 80 18v-174q-80 -31 -156 -30q-154 0 -178 145q-135 -145 -307 -145q-115 0 -181.5 69.5t-66.5 214.5v527h-135zM254 1174v210h211v-210h-211zM618 1174v210h213 v-210h-213z" />
<glyph unicode="&#xfd;" horiz-adv-x="1015" d="M31 791v172h448v-172h-104l147 -453l178 625h285v-172h-104l-234 -713q-31 -94 -58.5 -158.5t-70.5 -132.5t-95 -108.5t-129 -70.5t-175 -38l-29 168q227 39 295 244l23 67l-269 742h-108zM424 1151l121 276h252l-150 -276h-223z" />
<glyph unicode="&#xfe;" horiz-adv-x="1075" d="M31 -238h135v1493h-135v172h356v-542q102 98 248 98q152 0 250 -116.5t98 -370.5q0 -516 -362 -516q-131 0 -234 77v-295h201v-172h-557v172zM387 238q102 -66 193 -66q80 0 126 68t46 258q0 172 -49.5 232.5t-133.5 60.5q-86 0 -182 -86v-467z" />
<glyph unicode="&#xff;" horiz-adv-x="1015" d="M31 791v172h448v-172h-104l147 -453l178 625h285v-172h-104l-234 -713q-31 -94 -58.5 -158.5t-70.5 -132.5t-95 -108.5t-129 -70.5t-175 -38l-29 168q227 39 295 244l23 67l-269 742h-108zM219 1174v210h211v-210h-211zM584 1174v210h213v-210h-213z" />
<glyph unicode="&#x152;" horiz-adv-x="1595" d="M88 682q0 344 153.5 524t407.5 180q47 0 114.5 -10t90.5 -10h670v-367h-172v175h-344v-383h387v-191h-387v-407h344v184h172v-377h-668q-23 0 -91.5 -10t-115.5 -10q-258 0 -409.5 179t-151.5 523zM330 682q0 -256 88 -384t231 -128q80 0 127 23v985q-53 25 -127 24 q-141 0 -230 -132t-89 -388z" />
<glyph unicode="&#x153;" horiz-adv-x="1615" d="M88 481q0 252 120 377t320 125q205 0 322 -152q100 152 289 152q197 0 293 -143.5t96 -444.5h-557q8 -106 60 -166.5t136 -60.5q115 0 267 96l77 -151q-113 -86 -202 -113q-72 -20 -150 -20q-213 0 -313 149q-109 -150 -318 -149q-199 0 -319.5 124.5t-120.5 376.5z M319 481q0 -315 209 -315t209 315q0 317 -209 317.5t-209 -317.5zM971 547h321q0 266 -153 266q-82 0 -121 -64.5t-47 -201.5z" />
<glyph unicode="&#x178;" horiz-adv-x="1099" d="M31 1194v172h469v-172h-109l158 -426l164 426h-107v172h463v-172h-113l-299 -690v-332h177v-172h-582v172h174v332l-281 690h-114zM262 1427v211h211v-211h-211zM627 1427v211h213v-211h-213z" />
<glyph unicode="&#x2c6;" horiz-adv-x="749" d="M41 1151l184 276h299l185 -276h-250l-84 141l-88 -141h-246z" />
<glyph unicode="&#x2dc;" horiz-adv-x="667" d="M41 1233q2 6 6 18.5t21.5 42t37 52t54.5 41t73 18.5q59 0 118 -24.5t85.5 -24.5t51 12t34.5 25l10 10l95 -76q-2 -6 -6.5 -18.5t-19.5 -42t-34.5 -52t-52.5 -41t-70 -18.5q-53 0 -113.5 24.5t-88.5 24.5q-31 0 -57.5 -12t-37.5 -25l-12 -12z" />
<glyph unicode="&#x2000;" horiz-adv-x="849" />
<glyph unicode="&#x2001;" horiz-adv-x="1698" />
<glyph unicode="&#x2002;" horiz-adv-x="849" />
<glyph unicode="&#x2003;" horiz-adv-x="1698" />
<glyph unicode="&#x2004;" horiz-adv-x="566" />
<glyph unicode="&#x2005;" horiz-adv-x="424" />
<glyph unicode="&#x2006;" horiz-adv-x="283" />
<glyph unicode="&#x2007;" horiz-adv-x="283" />
<glyph unicode="&#x2008;" horiz-adv-x="212" />
<glyph unicode="&#x2009;" horiz-adv-x="339" />
<glyph unicode="&#x200a;" horiz-adv-x="94" />
<glyph unicode="&#x2010;" horiz-adv-x="544" d="M61 504v196h422v-196h-422z" />
<glyph unicode="&#x2011;" horiz-adv-x="544" d="M61 504v196h422v-196h-422z" />
<glyph unicode="&#x2012;" horiz-adv-x="544" d="M61 504v196h422v-196h-422z" />
<glyph unicode="&#x2013;" horiz-adv-x="759" d="M61 487v193h637v-193h-637z" />
<glyph unicode="&#x2014;" horiz-adv-x="964" d="M61 487v193h842v-193h-842z" />
<glyph unicode="&#x2018;" horiz-adv-x="514" d="M133 868v228l68 290l161 -26l-47 -244h66v-248h-248z" />
<glyph unicode="&#x2019;" horiz-adv-x="514" d="M133 1118v248h248v-227l-66 -291l-161 24l45 246h-66z" />
<glyph unicode="&#x201a;" horiz-adv-x="514" d="M133 0v248h248v-228l-66 -290l-161 26l45 244h-66z" />
<glyph unicode="&#x201c;" horiz-adv-x="917" d="M133 868v228l68 290l161 -26l-47 -244h66v-248h-248zM537 868v228l67 290l160 -26l-45 -244h65v-248h-247z" />
<glyph unicode="&#x201d;" horiz-adv-x="917" d="M133 1118v248h248v-227l-66 -291l-161 24l45 246h-66zM537 1118v248h247v-227l-67 -291l-160 24l45 246h-65z" />
<glyph unicode="&#x201e;" horiz-adv-x="917" d="M133 0v248h248v-228l-66 -290l-161 26l45 244h-66zM537 0v248h247v-228l-67 -290l-160 26l45 244h-65z" />
<glyph unicode="&#x2022;" horiz-adv-x="602" d="M133 526v336h336v-336h-336z" />
<glyph unicode="&#x2026;" horiz-adv-x="1429" d="M133 0v248h248v-248h-248zM592 0v248h248v-248h-248zM1049 0v248h247v-248h-247z" />
<glyph unicode="&#x202f;" horiz-adv-x="339" />
<glyph unicode="&#x2039;" horiz-adv-x="583" d="M61 563l301 418l160 -96l-215 -322l215 -321l-160 -97z" />
<glyph unicode="&#x203a;" horiz-adv-x="583" d="M61 242l215 321l-215 322l160 96l301 -418l-301 -418z" />
<glyph unicode="&#x205f;" horiz-adv-x="424" />
<glyph unicode="&#x20ac;" horiz-adv-x="1165" d="M61 428v160h132q0 10 -1.5 31.5t-1.5 31.5q0 51 3 74h-132v162h156q53 217 197.5 327.5t322.5 110.5q35 0 69 -3t59.5 -6t54 -9.5t45 -10.5t41 -13t34 -13t31 -13.5t23.5 -9.5v-268h-170v121q-92 31 -183 30q-211 0 -288 -243h438v-162h-465q-4 -45 -4 -74q0 -10 2 -31.5 t2 -31.5h465v-160h-447q53 -252 281 -252q88 0 199 41v129h170v-278q-186 -88 -385 -88q-82 0 -154 20t-143.5 68.5t-125 139.5t-77.5 220h-148z" />
<glyph unicode="&#x2122;" horiz-adv-x="1699" d="M41 1180v186h621v-186h-205v-590h-213v590h-203zM745 590v776h256l177 -453l174 453h256v-776h-209v405l-150 -405h-145l-146 403v-403h-213z" />
<glyph unicode="&#xe000;" horiz-adv-x="962" d="M0 0v963h963v-963h-963z" />
<glyph unicode="&#xfb01;" horiz-adv-x="1085" d="M31 0v172h135v619h-135v172h135v200q0 285 274 285q98 0 217 -45v-287h-151v141q-20 4 -47 5q-72 0 -72 -109v-190h535v-738q0 -59 53 -59q33 0 80 18v-174q-80 -31 -156 -30q-199 0 -199 213v598h-313v-619h145v-172h-501zM725 1163v203h197v-203h-197z" />
<glyph unicode="&#xfb02;" horiz-adv-x="1085" d="M31 0v172h135v619h-135v172h135v200q0 285 274 285q104 0 203 -39v-293h-137v141q-20 4 -47 5q-72 0 -72 -109v-190h154v-172h-154v-619h145v-172h-501zM700 193v1234h222v-1202q0 -59 53 -59q33 0 80 18v-174q-80 -31 -156 -30q-199 0 -199 213z" />
</font>
</defs>
</svg>
